# xmcd
#
# Track frame offsets:
#	150
#	16696
#	32682
#	46533
#	68746
#	90867
#	111568
#	133712
#	150069
#	166254
#	181570
#	197467
#	215742
#	236987
#	254674
#	268410
#
# Disc length: 3831 seconds
#
# Revision: 1
# Processed by: cddbd v1.5.1PL2 Copyright (c) Steve Scherf et al.
# Submitted via: audiograbber 1.83.01
#
DISCID=cd0ef510
DTITLE=Tim McGraw - Live Like You Were Dying
DYEAR=2004
DGENRE=Country
TTITLE0=How Bad Do You Want It
TTITLE1=My Old Friend
TTITLE2=Can't Tell Me Nothin'
TTITLE3=Old Town New
TTITLE4=Live Like You Were Dying
TTITLE5=Drugs or Jesus
TTITLE6=Back When
TTITLE7=Something's Broken
TTITLE8=Open Season On My Heart
TTITLE9=Everybody Hate Me
TTITLE10=Walk Like A Man
TTITLE11=Blank Sheet Of Paper
TTITLE12=Just Be Your Tear
TTITLE13=Do You Want Fries With That
TTITLE14=Kill Myself
TTITLE15=We Carry On
EXTD=
EXTT0=
EXTT1=
EXTT2=
EXTT3=
EXTT4=
EXTT5=
EXTT6=
EXTT7=
EXTT8=
EXTT9=
EXTT10=
EXTT11=
EXTT12=
EXTT13=
EXTT14=
EXTT15=
PLAYORDER=
